PathFileType	4	(X/Y/Z)	/Users/itak/Documents/Research/Walk-IL/dataset/trc/00520_00183.trc
DataRate	CameraRate	NumFrames	NumMarkers	Units	OrigDataRate	OrigDataStartFrame	OrigNumFrames
100.000000	100.000000	4	53	mm	100.000000	236	472
Frame#	Time	RPSI			LPSI			L3			STRN			T10			C7			CLAV			RBAK			LBAK			LSHO			LUPA			LAEL			LAOL			LWTS			LWPS			LFRA			LIFD			LHPS			LHTS			RSHO			RUPA			RAEL			RAOL			RWTS			RWPS			RFRA			RIFD			RHTS			RHPS			RBHD			LFHD			RFHD			LBHD			LHIP			RHIP			RASI			LASI			LKNE			LTHI			LANK			LTIP			LTOE			LMT1			LMT5			LHEE			RKNE			RTHI			RANK			RTIP			RTOE			RMT1			RMT5			RHEE			
		X1	Y1	Z1	X2	Y2	Z2	X3	Y3	Z3	X4	Y4	Z4	X5	Y5	Z5	X6	Y6	Z6	X7	Y7	Z7	X8	Y8	Z8	X9	Y9	Z9	X10	Y10	Z10	X11	Y11	Z11	X12	Y12	Z12	X13	Y13	Z13	X14	Y14	Z14	X15	Y15	Z15	X16	Y16	Z16	X17	Y17	Z17	X18	Y18	Z18	X19	Y19	Z19	X20	Y20	Z20	X21	Y21	Z21	X22	Y22	Z22	X23	Y23	Z23	X24	Y24	Z24	X25	Y25	Z25	X26	Y26	Z26	X27	Y27	Z27	X28	Y28	Z28	X29	Y29	Z29	X30	Y30	Z30	X31	Y31	Z31	X32	Y32	Z32	X33	Y33	Z33	X34	Y34	Z34	X35	Y35	Z35	X36	Y36	Z36	X37	Y37	Z37	X38	Y38	Z38	X39	Y39	Z39	X40	Y40	Z40	X41	Y41	Z41	X42	Y42	Z42	X43	Y43	Z43	X44	Y44	Z44	X45	Y45	Z45	X46	Y46	Z46	X47	Y47	Z47	X48	Y48	Z48	X49	Y49	Z49	X50	Y50	Z50	X51	Y51	Z51	X52	Y52	Z52	X53	Y53	Z53	

237	2.36	-272.8536071777344	931.180419921875	-225.3043670654297	-187.0267028808594	947.9878540039062	-313.4706726074219	-230.489013671875	1019.598388671875	-266.3285827636719	-51.34173202514648	1180.6435546875	-127.3493347167969	-242.3796081542969	1125.060180664062	-265.2301940917969	-202.6504669189453	1352.4990234375	-228.2015991210938	-79.50410461425781	1275.783325195312	-144.9533386230469	-295.9766540527344	1231.528198242188	-190.3928375244141	-174.359375	1300.182006835938	-315.5531005859375	-55.78262710571289	1347.830078125	-321.2369689941406	-32.2293701171875	1225.748901367188	-385.0442199707031	-9.216723442077637	1017.334655761719	-413.1357421875	-107.5288543701172	1007.649536132812	-396.4376525878906	34.33953094482422	822.623779296875	-336.0285034179688	14.04281997680664	799.9873657226562	-425.0129089355469	7.989406108856201	933.0736083984375	-409.403564453125	37.17974853515625	665.81591796875	-352.8717346191406	30.39544105529785	744.931884765625	-412.9142150878906	57.11563491821289	747.4744873046875	-353.7584228515625	-243.8166809082031	1344.008178710938	-76.23091125488281	-289.174072265625	1275.187377929688	-40.13224029541016	-304.7361450195312	1006.642578125	-6.941636562347412	-321.57763671875	989.6874389648438	-68.97211456298828	-203.2286834716797	807.0422973632812	30.97261047363281	-290.6889343261719	780.2529296875	19.4294261932373	-305.6873168945312	952.400390625	0.3439950048923492	-203.2174072265625	646.7919311523438	35.96222305297852	-206.0877838134766	714.5490112304688	58.41653442382812	-270.9451904296875	710.5548095703125	32.25055313110352	-227.6062469482422	1493.212524414062	-136.8953704833984	-42.28125381469727	1566.077880859375	-119.8368682861328	-140.2547149658203	1541.541870117188	-42.30012512207031	-113.8299865722656	1520.944702148438	-245.9208068847656	-11.24657726287842	894.7525634765625	-334.7579345703125	-272.7357482910156	822.8677368164062	-65.99429321289062	-160.5299072265625	884.252685546875	-43.38571548461914	2.358085632324219	924.7271728515625	-219.48046875	47.78358459472656	482.9546203613281	-242.2672424316406	41.72076797485352	637.2007446289062	-277.9820556640625	13.57193183898926	45.63182830810547	-314.0216674804688	50.90100479125977	331.1967163085938	-262.301025390625	103.835090637207	37.85418701171875	-127.1437530517578	26.99399948120117	42.65298843383789	-160.8655090332031	94.44960021972656	40.44841384887695	-239.1911010742188	-63.48312759399414	40.69352340698242	-302.7768859863281	-159.9446105957031	452.8743591308594	-59.36612319946289	-227.3109893798828	698.3655395507812	-47.24799346923828	-426.6781921386719	223.1306457519531	-281.4275512695312	-208.0239562988281	343.9223327636719	-109.5227584838867	-325.0645141601562	56.72681045532227	-239.35400390625	-326.4160461425781	105.4802703857422	-294.7000732421875	-398.5376281738281	127.259407043457	-231.7270355224609	-419.9934692382812	259.8783569335938	-340.57958984375	
238	2.37	-265.3949890136719	932.9246215820312	-223.0311431884766	-178.4102783203125	949.6227416992188	-310.0247497558594	-221.9897155761719	1021.641296386719	-264.0663757324219	-44.55603790283203	1182.384521484375	-121.4871520996094	-233.6750640869141	1127.072875976562	-262.8358459472656	-194.2080383300781	1354.407836914062	-224.7203826904297	-72.56446075439453	1277.521362304688	-139.4329528808594	-288.2343139648438	1233.490112304688	-188.8099975585938	-164.4676666259766	1302.296142578125	-311.6483764648438	-45.79286575317383	1349.939086914062	-315.1552734375	-20.9938793182373	1228.048095703125	-378.837890625	2.48441481590271	1019.612426757812	-406.6141662597656	-96.16613006591797	1010.013244628906	-392.3260803222656	43.58216094970703	824.657958984375	-328.7710876464844	25.99213600158691	802.1896362304688	-418.4014587402344	19.5466251373291	935.345458984375	-402.56103515625	47.41240310668945	667.9417724609375	-345.8875427246094	42.17855834960938	747.16650390625	-405.9247436523438	67.01364135742188	749.629638671875	-345.9750061035156	-238.0355529785156	1345.689819335938	-73.52857971191406	-284.3328857421875	1277.027954101562	-38.32703018188477	-301.6676025390625	1008.483642578125	-5.967953205108643	-317.3179626464844	991.7885131835938	-68.44510650634766	-201.5858459472656	808.2960205078125	33.08375549316406	-288.8165893554688	781.8671264648438	19.99183082580566	-303.0323181152344	954.3340454101562	1.217575788497925	-202.2798004150391	647.9837646484375	37.38966369628906	-205.2318267822266	715.6558227539062	60.08083724975586	-269.7291564941406	712.15625	32.92550659179688	-220.5162811279297	1494.910766601562	-132.9609069824219	-35.30318069458008	1567.632080078125	-113.5378112792969	-134.2657318115234	1543.051635742188	-37.30869674682617	-105.4082336425781	1522.696533203125	-240.5536041259766	-2.566358089447021	895.833984375	-329.3343811035156	-267.0765075683594	825.19140625	-63.24373245239258	-155.2577056884766	886.753662109375	-39.81768417358398	10.02207183837891	926.1546630859375	-213.9732208251953	51.09930038452148	482.6406555175781	-240.8003387451172	47.23359298706055	637.577880859375	-274.4589233398438	13.69788837432861	45.58555603027344	-314.0867004394531	52.74266052246094	330.9110412597656	-261.7713928222656	103.9475631713867	37.90531158447266	-127.3407440185547	27.06828117370605	42.74673461914062	-160.9140167236328	94.54940032958984	40.13181686401367	-239.2037811279297	-63.42312240600586	40.83330535888672	-302.8576354980469	-146.4340362548828	457.2512512207031	-49.55718994140625	-220.4446868896484	701.2279663085938	-42.52195739746094	-405.4608154296875	222.4091491699219	-275.1709594726562	-192.1638336181641	347.9431762695312	-99.61672210693359	-302.7400817871094	58.73669052124023	-226.6396942138672	-303.1977233886719	106.2217712402344	-283.084716796875	-377.2240905761719	128.3032684326172	-222.5349273681641	-397.6417846679688	257.8873291015625	-334.9344787597656	
239	2.38	-258.056884765625	934.6595458984375	-220.5209197998047	-169.978515625	951.1205444335938	-306.3955383300781	-213.6180725097656	1023.611267089844	-261.7056274414062	-37.91928482055664	1184.092407226562	-115.6431121826172	-225.0565948486328	1128.991333007812	-260.3448181152344	-185.9276885986328	1356.238159179688	-221.1899261474609	-65.78892517089844	1279.248291015625	-133.8968963623047	-280.5925598144531	1235.374267578125	-187.18359375	-154.7335357666016	1304.324096679688	-307.6661376953125	-36.02112579345703	1352.016967773438	-309.0034790039062	-9.914591789245605	1230.314697265625	-372.4989624023438	14.08479309082031	1021.865661621094	-399.9212951660156	-84.83766937255859	1012.312622070312	-387.9782104492188	52.90428924560547	826.6967163085938	-321.4044494628906	37.87177658081055	804.366943359375	-411.5714111328125	31.02425193786621	937.592041015625	-395.5452575683594	57.68508911132812	670.049560546875	-338.7712707519531	53.89969635009766	749.3814086914062	-398.7539672851562	76.94877624511719	751.7681884765625	-338.100830078125	-232.406982421875	1347.304321289062	-70.82732391357422	-279.6334533691406	1278.821533203125	-36.56670761108398	-298.8546447753906	1010.286315917969	-5.140235900878906	-313.2442626953125	993.8366088867188	-68.06766510009766	-200.1724395751953	809.6011962890625	35.20454788208008	-287.0767822265625	783.4595947265625	20.43796539306641	-300.6273498535156	956.219482421875	1.918562650680542	-201.4397735595703	649.2443237304688	39.02180480957031	-204.5864715576172	716.8656005859375	61.86813354492188	-268.6161804199219	713.7476196289062	33.59593963623047	-213.5555877685547	1496.593505859375	-128.9546813964844	-28.45031356811523	1569.043701171875	-107.1562881469727	-128.3973846435547	1544.456298828125	-32.24276351928711	-97.14303588867188	1524.406372070312	-235.096923828125	5.885574340820312	896.772216796875	-323.9574584960938	-261.3846130371094	827.6072998046875	-60.18672561645508	-149.8791198730469	889.20361328125	-36.26031494140625	17.65786933898926	927.5098266601562	-208.5467987060547	54.31288909912109	482.3207397460938	-239.3858642578125	52.67789459228516	637.8712768554688	-270.9405212402344	13.811110496521	45.54284286499023	-314.1517333984375	54.50815963745117	330.6112060546875	-261.2615356445312	104.0628509521484	37.94577407836914	-127.5411911010742	27.1507625579834	42.84353256225586	-160.9573364257812	94.63522338867188	39.82413482666016	-239.2291717529297	-63.33858108520508	41.01144790649414	-302.9496154785156	-133.6745300292969	461.78173828125	-39.73510360717773	-213.5184631347656	704.24365234375	-37.46915817260742	-383.9444274902344	220.2930603027344	-268.5606689453125	-176.8682861328125	351.8000183105469	-89.64900970458984	-280.0087890625	60.15620803833008	-212.737548828125	-279.5000915527344	105.9773254394531	-270.4242858886719	-355.5630187988281	128.3166656494141	-212.6320953369141	-374.8922119140625	254.3220367431641	-329.0367126464844	
240	2.39	-250.8336181640625	936.3060302734375	-217.7946166992188	-161.7243957519531	952.4706420898438	-302.5835571289062	-205.3913116455078	1025.447875976562	-259.2226257324219	-31.44428443908691	1185.71826171875	-109.8410339355469	-216.5212554931641	1130.775268554688	-257.7339172363281	-177.8066101074219	1357.951782226562	-217.5999755859375	-59.16525650024414	1280.9248046875	-128.3594055175781	-273.0503845214844	1237.145141601562	-185.4876556396484	-145.1620178222656	1306.224609375	-303.6030883789062	-26.47159767150879	1354.024658203125	-302.7968139648438	0.989404559135437	1232.509155273438	-366.0443725585938	25.57001686096191	1024.053833007812	-393.0742797851562	-73.56719207763672	1014.505676269531	-383.3847961425781	62.34372711181641	828.7068481445312	-313.933837890625	49.66255569458008	806.476806640625	-404.5291442871094	42.41336059570312	939.7740478515625	-388.3734436035156	67.97325134277344	672.1026611328125	-331.5046691894531	65.52771759033203	751.5288696289062	-391.4050598144531	86.93923950195312	753.8463745117188	-330.1427001953125	-226.8985595703125	1348.814453125	-68.11372375488281	-275.0137634277344	1280.521728515625	-34.85731887817383	-296.2514953613281	1012.010986328125	-4.444179058074951	-309.3311767578125	995.7933959960938	-67.81141662597656	-198.9747161865234	810.9052124023438	37.33913803100586	-285.4704895019531	784.9931030273438	20.78652000427246	-298.4115600585938	958.009521484375	2.442738056182861	-200.7129058837891	650.5234375	40.85772323608398	-204.1500549316406	718.1226806640625	63.77334213256836	-267.6017150878906	715.2789306640625	34.26569747924805	-206.7215270996094	1498.225952148438	-124.8906784057617	-21.72774696350098	1570.289794921875	-100.7021179199219	-122.6504211425781	1545.722778320312	-27.10903930664062	-89.02304840087891	1526.05224609375	-229.5641937255859	14.13144969940186	897.586181640625	-318.6264038085938	-255.66064453125	830.0350952148438	-56.84331893920898	-144.3893737792969	891.5348510742188	-32.6904296875	25.26456069946289	928.7520751953125	-203.1806793212891	57.43098449707031	481.9930725097656	-238.0708923339844	58.06872940063477	638.069580078125	-267.4708251953125	13.91465187072754	45.50255584716797	-314.2175598144531	56.21695709228516	330.3057556152344	-260.8287048339844	104.1790542602539	37.976806640625	-127.7410507202148	27.2401180267334	42.94273376464844	-160.9963226318359	94.7203369140625	39.53826141357422	-239.2710113525391	-63.22702789306641	41.22434616088867	-303.0529174804688	-121.6758880615234	466.3583984375	-29.91842842102051	-206.5457153320312	707.3671875	-32.12116622924805	-362.1686096191406	216.876220703125	-261.5189208984375	-162.1554260253906	355.3944091796875	-79.62806701660156	-257.09033203125	61.00793075561523	-197.6578369140625	-255.4849395751953	104.8298110961914	-256.6798706054688	-333.6982727050781	127.3920440673828	-201.9863433837891	-351.7665100097656	249.2939605712891	-322.7833862304688	
